<svg width="39" height="40" viewBox="0 0 39 40" fill="none" xmlns="http://www.w3.org/2000/svg">
<g clip-path="url(#clip0_5_489)">
<path d="M29.539 18.7542C29.539 12.8822 24.8425 8.12661 19.0653 8.17115C13.3655 8.21474 8.73315 12.9855 8.75176 18.7893C8.762 22.1271 10.2903 25.1001 12.6702 27.0325C13.8457 27.9868 14.5363 29.4302 14.5363 30.9617V34.4066C14.5363 36.9986 16.5998 39.0997 19.1454 39.0997C21.691 39.0997 23.7544 36.9986 23.7544 34.4066V30.9617C23.7544 29.4235 24.4571 27.9811 25.6364 27.0202C28.0154 25.0811 29.5399 22.0987 29.5399 18.7542H29.539Z" fill="#374459"/>
<path d="M19.1454 40C16.1158 40 13.6512 37.4905 13.6512 34.4057V30.9608C13.6512 29.7031 13.0928 28.528 12.1174 27.7367C9.42657 25.5522 7.87689 22.2911 7.86572 18.7922C7.84617 12.487 12.8666 7.31824 19.0579 7.27085C22.0903 7.24526 24.9402 8.43085 27.0893 10.603C29.2393 12.7752 30.4232 15.6704 30.4232 18.7543C30.4232 22.2608 28.88 25.5294 26.1883 27.7234C25.2036 28.5261 24.6386 29.706 24.6386 30.9617V34.4066C24.6386 37.4914 22.174 40.001 19.1445 40.001L19.1454 40ZM19.1454 9.0715C19.1203 9.0715 19.0961 9.0715 19.0719 9.0715C13.8523 9.11131 9.61924 13.4689 9.63599 18.7855C9.6453 21.7358 10.9521 24.4851 13.2212 26.3274C14.6192 27.4628 15.4215 29.1516 15.4215 30.9608V34.4057C15.4215 36.4963 17.0922 38.1975 19.1454 38.1975C21.1986 38.1975 22.8693 36.4963 22.8693 34.4057V30.9608C22.8693 29.1554 23.6763 27.4618 25.0826 26.316C27.3518 24.4661 28.6539 21.7102 28.6539 18.7533C28.6539 16.1528 27.6561 13.7124 25.843 11.8805C24.0485 10.0666 21.6724 9.07055 19.1454 9.07055V9.0715Z" fill="white"/>
<path d="M19.1454 26.4316C23.2392 26.4316 26.5578 23.0525 26.5578 18.884C26.5578 14.7156 23.2392 11.3365 19.1454 11.3365C15.0516 11.3365 11.733 14.7156 11.733 18.884C11.733 23.0525 15.0516 26.4316 19.1454 26.4316Z" fill="#FFB600"/>
<path d="M23.7544 32.1805H14.5363C14.0477 32.1805 13.6512 31.7767 13.6512 31.2792C13.6512 30.7817 14.0477 30.3779 14.5363 30.3779H23.7544C24.243 30.3779 24.6395 30.7817 24.6395 31.2792C24.6395 31.7767 24.243 32.1805 23.7544 32.1805Z" fill="white"/>
<path d="M20.7984 32.1804H17.7465C17.2578 32.1804 16.8613 31.7767 16.8613 31.2792V16.2627C16.8613 14.9804 17.9429 13.937 19.272 13.937C20.6011 13.937 21.6826 14.9804 21.6826 16.2627V19.1589C21.6826 19.6564 21.2861 20.0602 20.7974 20.0602C20.3088 20.0602 19.9123 19.6564 19.9123 19.1589V16.2627C19.9123 15.9793 19.6191 15.7396 19.271 15.7396C18.9229 15.7396 18.6297 15.9793 18.6297 16.2627V30.3788H19.9114V22.7033C19.9114 22.2058 20.3079 21.8021 20.7965 21.8021C21.2852 21.8021 21.6816 22.2058 21.6816 22.7033V31.2801C21.6816 31.7777 21.2852 32.1814 20.7965 32.1814L20.7984 32.1804Z" fill="white"/>
<path d="M38.1158 20.7568H34.2681C33.7795 20.7568 33.383 20.353 33.383 19.8555C33.383 19.3579 33.7795 18.9542 34.2681 18.9542H38.1158C38.6045 18.9542 39.001 19.3579 39.001 19.8555C39.001 20.353 38.6045 20.7568 38.1158 20.7568Z" fill="white"/>
<path d="M4.73283 20.7568H0.885137C0.396497 20.7568 0 20.353 0 19.8555C0 19.3579 0.396497 18.9542 0.885137 18.9542H4.73283C5.22147 18.9542 5.61797 19.3579 5.61797 19.8555C5.61797 20.353 5.22147 20.7568 4.73283 20.7568Z" fill="white"/>
<path d="M32.2893 13.2385C31.9831 13.2385 31.6862 13.0765 31.5224 12.7874C31.2785 12.3562 31.4228 11.8056 31.8463 11.5563L35.1793 9.59743C35.6028 9.34818 36.1435 9.49603 36.3883 9.92723C36.6322 10.3584 36.4879 10.9091 36.0644 11.1583L32.7314 13.1172C32.5918 13.1987 32.4401 13.2385 32.2893 13.2385Z" fill="white"/>
<path d="M3.37953 30.2338C3.07332 30.2338 2.77641 30.0717 2.6126 29.7836C2.36781 29.3524 2.51301 28.8018 2.9365 28.5526L6.26949 26.5936C6.69298 26.3444 7.23374 26.4922 7.47852 26.9235C7.72331 27.3547 7.57811 27.9053 7.15462 28.1545L3.82163 30.1134C3.68202 30.1949 3.53031 30.2348 3.38046 30.2348L3.37953 30.2338Z" fill="white"/>
<path d="M26.8826 7.7352C26.7328 7.7352 26.5801 7.69635 26.4405 7.61389C26.017 7.36559 25.8728 6.81403 26.1166 6.38282L28.0405 2.98907C28.2853 2.55786 28.826 2.41097 29.2495 2.65927C29.673 2.90757 29.8173 3.45913 29.5734 3.89034L27.6496 7.28409C27.4858 7.57314 27.1879 7.7352 26.8826 7.7352Z" fill="white"/>
<path d="M19.5 5.72038C19.0114 5.72038 18.6149 5.31665 18.6149 4.81911V0.901272C18.6149 0.403725 19.0114 0 19.5 0C19.9886 0 20.3851 0.403725 20.3851 0.901272V4.81911C20.3851 5.31665 19.9886 5.72038 19.5 5.72038Z" fill="white"/>
<path d="M12.1173 7.7352C11.8111 7.7352 11.5142 7.57314 11.3504 7.28409L9.42656 3.89034C9.18178 3.45913 9.32697 2.90851 9.75046 2.65927C10.1739 2.41097 10.7147 2.55786 10.9595 2.98907L12.8833 6.38282C13.1281 6.81403 12.9829 7.36465 12.5594 7.61389C12.4198 7.6954 12.2681 7.7352 12.1183 7.7352H12.1173Z" fill="white"/>
<path d="M6.71066 13.2385C6.56081 13.2385 6.40817 13.1997 6.26949 13.1172L2.9365 11.1583C2.51301 10.9091 2.36781 10.3584 2.6126 9.92724C2.85738 9.49603 3.39814 9.34914 3.82163 9.59744L7.15462 11.5564C7.57811 11.8056 7.72331 12.3562 7.47852 12.7874C7.31471 13.0765 7.01687 13.2385 6.71159 13.2385H6.71066Z" fill="white"/>
<path d="M35.6205 30.2338C35.4706 30.2338 35.318 30.195 35.1784 30.1125L31.8454 28.1536C31.4219 27.9053 31.2776 27.3537 31.5215 26.9225C31.7663 26.4913 32.307 26.3444 32.7305 26.5927L36.0635 28.5517C36.487 28.8 36.6313 29.3515 36.3874 29.7827C36.2236 30.0718 35.9258 30.2329 35.6205 30.2329V30.2338Z" fill="white"/>
</g>
<defs>
<clipPath id="clip0_5_489">
<rect width="39" height="40" fill="white"/>
</clipPath>
</defs>
</svg>
